<?xml version="1.0" encoding="utf-8"?>
<!-- Generator: Adobe Illustrator 22.1.0, SVG Export Plug-In . SVG Version: 6.00 Build 0)  -->
<svg version="1.2" baseProfile="tiny" id="Layer_1" xmlns="http://www.w3.org/2000/svg" xmlns:xlink="http://www.w3.org/1999/xlink"
	 x="0px" y="0px" viewBox="0 0 155.6 307.4" xml:space="preserve">
<title>Asset 1</title>
<g id="Layer_2_1_">
	<g id="Layer_1-2">
		<g id="Icons">
			<path fill="none" stroke="#A67A47" stroke-width="2" stroke-miterlimit="10" d="M0.1,303.3c12.7,1.5,24.2,3,30,3.1
				c14.4,0.2,45.5-3.8,87.2-5.1"/>
			<g>
				<image width="7" height="282" xlink:href="84EB4DD1F5D1A4E9.png"  transform="matrix(1 0 0 1 64 21.37)">
				</image>
				<path fill="#939598" d="M67.4,304.3c-0.6,0-1.1-0.4-1.2-1l-2.9-15.1V21.1h8.2l0,267.3l-2.9,14.9c-0.1,0.5-0.4,0.8-0.9,0.9
					L67.4,304.3C67.5,304.3,67.5,304.3,67.4,304.3z M68.2,302.9L68.2,302.9C68.2,302.9,68.2,302.9,68.2,302.9z M65.3,288.1l2.1,10.7
					l2.1-10.7v-265h-4.2V288.1z"/>
			</g>
			<line fill="none" stroke="#939598" stroke-width="2" stroke-miterlimit="10" x1="64.3" y1="288.2" x2="70.5" y2="288.2"/>
			<path fill="#C7552E" stroke="#C7552E" stroke-width="2" stroke-miterlimit="10" d="M47.9,10c-1.7,0-3-1.3-3-3
				c0-4,5.6-4.8,8.7-5.2c9.2-1.1,18.5-1.1,27.7,0c3,0.4,8.7,1.2,8.7,5.2c0,1.7-1.3,3-3,3"/>
			<path id="_Compound_Clipping_Path_" fill="#F8F8F8" d="M87,8.1L84.4,7c-1.8-0.7-7.7-1.6-16.9-1.6S52.2,6.3,50.5,7l-2.6,1v8.8
				l5.2,5.2h28.7l5.2-5.1V8.1z"/>
			<path id="_Compound_Path_" fill="#F8F8F8" d="M87,8.1L84.4,7c-1.8-0.7-7.7-1.6-16.9-1.6S52.2,6.3,50.5,7l-2.6,1v8.8l5.2,5.2h28.7
				l5.2-5.1V8.1z"/>
			<image width="40" height="17" xlink:href="84EB4DD1F5D1A4EB.png"  transform="matrix(1 0 0 1 47 5.37)">
			</image>
			<image width="36" height="5" xlink:href="84EB4DD1F5D1A4EE.png"  transform="matrix(1 0 0 1 31 155.37)">
			</image>
			<rect x="31.8" y="152.4" fill="#F8F8F8" width="34.6" height="3.6"/>
			<polyline fill="none" stroke="#939598" stroke-width="2" stroke-miterlimit="10" points="66.4,159.6 31.8,159.6 31.8,152.4 
				66.4,152.4 			"/>
			<path fill="#F8F8F8" d="M47.8,170.2l-6.9-24.9c-0.7-2.6-3-4.3-5.7-4.3H17.5c-0.8,0-1.5,0.3-2,0.9l-0.5,0.5
				c-1.4,1.4-1.9,3.3-1.4,5.2l6.6,23.9c0.6,2.3,2.7,3.9,5.1,3.9h17.1c1.4,0,2.8-0.6,3.8-1.6L47,173C47.7,172.3,48,171.2,47.8,170.2
				L47.8,170.2z"/>
			<image width="35" height="35" xlink:href="84EB4DD1F5D1A4EF.png"  transform="matrix(1 0 0 1 13 140.37)">
			</image>
			<path fill="none" stroke="#939598" stroke-width="2" stroke-miterlimit="10" d="M47.8,170.2l-6.9-24.9c-0.7-2.6-3-4.3-5.7-4.3
				H17.5c-0.8,0-1.5,0.3-2,0.9l-0.5,0.5c-1.4,1.4-1.9,3.3-1.4,5.2l6.6,23.9c0.6,2.3,2.7,3.9,5.1,3.9h17.1c1.4,0,2.8-0.6,3.8-1.6
				L47,173C47.7,172.3,48,171.2,47.8,170.2L47.8,170.2z"/>
			<line fill="none" stroke="#E04F1D" stroke-width="2" stroke-miterlimit="10" x1="151.2" y1="290.5" x2="151.2" y2="14.3"/>
			<polygon fill="#E04F1D" points="155.6,287.6 151.2,303.8 146.9,287.6 			"/>
			<polygon fill="#E04F1D" points="155.6,17.3 151.2,1 146.9,17.3 			"/>
			<path fill="none" stroke="#939598" stroke-width="2" stroke-miterlimit="10" d="M47.9,7.5v9.4l5.2,5.2h28.7l5.2-5.2V7.7"/>
			<polygon fill="#939598" points="41.8,163.7 27.2,163.7 26.7,161.7 41.3,161.7 			"/>
			<polygon fill="#939598" points="42.9,168 28.3,168 27.8,166 42.4,166 			"/>
			<polygon fill="#939598" points="22.6,145.7 37.2,145.7 39.4,154.4 24.8,154.4 			"/>
		</g>
	</g>
</g>
</svg>
