<?xml version="1.0" encoding="utf-8"?>
<!-- Generator: Adobe Illustrator 22.1.0, SVG Export Plug-In . SVG Version: 6.00 Build 0)  -->
<svg version="1.2" baseProfile="tiny" id="Layer_1" xmlns="http://www.w3.org/2000/svg" xmlns:xlink="http://www.w3.org/1999/xlink"
	 x="0px" y="0px" viewBox="0 0 500.5 238" xml:space="preserve">
<title>Asset 1</title>
<g id="Layer_2_1_">
	<g id="Layer_1-2">
		<g id="Icons">
			<path fill="#F3F4F4" d="M454.7,56.3c-24.4-2.2-50.7-1-74.4-7.9c-21.1-6.2-42-24.3-63.6-26.2c-12.1-2.5-26.1-2.8-43.8,1.6
				c-1.8,0.4-3.5,1.1-5.2,1.7c-5.5,1.7-49.8-15.9-72.6-23.9c-3.3-1.3-7-0.4-9.5,2.1c-2.1,2.1-4.3,4-6.8,5.7
				c-5.9-1.4-20.1-7.7-23-6.8C138,8.2,133,41.2,114.2,32.5c-3.4,1.3-7,4.8-10.8,9.7c-4,5.8-5.3,10.2-11.1,12
				c-1.4,0.4-2.8,0.7-4.2,1.2c-8.7,2.7-5.8,43.2-43,54.8c-2.9,1.9-6.3,2.9-9.8,2.8c-13.4,0-22-11.1-34.9-15.4v120.9
				c155.8-76.3,326.5-117.6,500-121V66.7C480.4,66.6,471.8,57.9,454.7,56.3z"/>
			<polyline fill="none" stroke="#A7A9AC" stroke-width="2" stroke-miterlimit="10" points="261,126.6 291.3,156.9 312.6,156.9 			
				"/>
			<path fill="#F3F4F4" d="M0.4,97.6c12.9,4.3,21.5,15.4,34.9,15.4c3.5,0,6.8-1,9.7-2.9c37.2-11.6,34.3-52.1,43-54.8
				c1.4-0.4,2.8-0.7,4.2-1.2c5.8-1.8,7.1-6.2,11.1-12c3.9-4.9,7.4-8.4,10.8-9.7C133,41.2,138,8.2,155.8,2.6c2.9-0.9,17.1,5.4,23,6.8
				c2.4-1.7,4.7-3.6,6.8-5.7c2.5-2.5,6.2-3.4,9.5-2.1c22.7,8,67,25.6,72.6,23.9c1.7-0.5,3.5-1.2,5.2-1.7c17.7-4.5,31.7-4.2,43.8-1.6
				c21.6,1.9,42.5,20.1,63.6,26.2c23.7,6.9,50,5.7,74.4,7.9c17.1,1.5,25.7,10.2,45.8,10.3v30.8c-173.5,3.4-344.2,44.7-500,121
				L0.4,97.6z"/>
			<line fill="none" stroke="#E04F1D" stroke-width="4" stroke-miterlimit="10" x1="189.7" y1="145.1" x2="175" y2="92.7"/>
			<path fill="none" stroke="#6DB5E3" stroke-width="2" stroke-miterlimit="10" stroke-dasharray="6" d="M500.5,97.5
				c-173.5,3.4-344.2,44.7-500,121"/>
			<polyline fill="none" stroke="#A7A9AC" stroke-width="2" stroke-miterlimit="10" points="240.9,80.4 214,53.5 192.6,53.5 			"/>
			<path fill="none" stroke="#68AA67" stroke-width="2" stroke-miterlimit="10" d="M500.5,80.9c-6,0.1-12,0.2-18.1,0.2
				c-41.8,0-82.3-4.7-148.8-4.7c-181.5,0-185.5,33.8-262.1,59c-21.5,7.1-46.2,9.8-71.1,14.1"/>
			<path fill="none" stroke="#E04F1D" stroke-width="2" stroke-miterlimit="10" d="M91.9,201.8c10.4-32.4,33.1-59.5,63.2-75.4"/>
			<polygon fill="#E04F1D" points="154.3,131.7 167.2,120.8 150.6,123.8 			"/>
			<path fill="none" stroke="#A7A9AC" stroke-width="2" stroke-miterlimit="10" d="M500.5,66.7c-20.1-0.1-28.6-8.8-45.8-10.3
				c-24.4-2.2-50.7-1-74.4-7.9c-21.1-6.2-42-24.3-63.6-26.2c-12.1-2.5-26.1-2.8-43.8,1.6c-1.8,0.4-3.5,1.1-5.2,1.7
				c-5.5,1.7-49.8-15.9-72.6-23.9c-3.3-1.3-7-0.4-9.5,2.1c-2.1,2.1-4.3,4-6.8,5.7c-5.9-1.4-20.1-7.7-23-6.8
				C138,8.2,133,41.2,114.2,32.5c-3.4,1.3-7,4.8-10.8,9.7c-4,5.8-5.3,10.2-11.1,12c-1.4,0.4-2.8,0.7-4.2,1.2
				c-8.7,2.7-5.8,43.2-43,54.8c-2.9,1.9-6.3,2.9-9.8,2.8c-13.4,0-22-11.1-34.9-15.4"/>
			<text transform="matrix(1 0 0 1 319.41 165)" fill="#6DB5E3" font-family="'Avenir-Black'" font-size="24.88px">E</text>
			<text transform="matrix(1 0 0 1 166.87 61.58)" fill="#68AA67" font-family="'Avenir-Black'" font-size="24.88px">G</text>
			<text transform="matrix(1 0 0 1 73.35 226.63)" fill="#E04F1D" font-family="'Avenir-Black'" font-size="24.88px">N</text>
		</g>
	</g>
</g>
</svg>
